<?xml version="1.0" standalone="no"?>
<!DOCTYPE svg PUBLIC "-//W3C//DTD SVG 20010904//EN"
 "http://www.w3.org/TR/2001/REC-SVG-20010904/DTD/svg10.dtd">
<svg version="1.0" xmlns="http://www.w3.org/2000/svg"
 width="300.000000pt" height="300.000000pt" viewBox="0 0 300.000000 300.000000"
 preserveAspectRatio="xMidYMid meet">
<metadata>
Created by potrace 1.10, written by Peter Selinger 2001-2011
</metadata>
<g transform="translate(0.000000,300.000000) scale(0.100000,-0.100000)"
fill="#000000" stroke="none">
<path d="M1255 2640 c-8 -14 3 -30 21 -30 8 0 14 9 14 20 0 21 -24 28 -35 10z"/>
<path d="M1825 2640 c-3 -5 -28 -10 -55 -10 -38 0 -52 -5 -63 -21 -13 -17 -24
-20 -73 -18 -33 1 -61 -2 -64 -6 -9 -16 134 -5 146 11 15 19 91 18 111 -1 8
-9 20 -14 26 -12 18 6 31 33 24 51 -7 18 -42 22 -52 6z"/>
<path d="M627 2633 c-4 -3 -4 -23 -1 -43 5 -29 2 -38 -10 -43 -19 -8 -21 -43
-3 -54 9 -6 12 -50 12 -165 l0 -156 -29 -6 c-16 -3 -59 -6 -97 -6 l-69 0 0
-29 c0 -23 -9 -34 -45 -58 l-46 -30 1 -319 0 -319 45 3 45 3 0 -295 0 -296
185 0 184 0 0 -67 c-1 -38 -5 -74 -11 -81 -15 -18 10 -46 28 -31 10 8 11 16 4
29 -13 24 -13 147 0 155 6 4 10 -14 10 -48 0 -41 5 -61 22 -82 12 -16 22 -38
23 -49 0 -24 32 -34 41 -13 3 10 -10 31 -35 56 -39 39 -51 61 -32 61 5 0 14
-7 21 -15 19 -23 167 -21 193 2 20 18 20 17 14 -54 -4 -50 -2 -73 6 -76 20 -7
37 4 37 24 0 11 -6 22 -12 24 -9 4 -14 36 -16 101 -3 115 11 150 18 44 l5 -75
43 -3 c46 -3 47 -4 30 -31 -14 -22 -4 -51 17 -51 21 0 31 28 17 50 -13 22 -6
30 25 30 12 0 23 5 23 10 0 6 6 10 13 10 15 0 11 -198 -5 -217 -15 -18 -2 -43
22 -43 26 0 37 27 22 51 -7 10 -12 47 -12 81 l0 63 85 -3 85 -3 0 -59 c0 -32
-5 -62 -10 -65 -14 -9 -12 -41 4 -54 31 -26 68 19 41 49 -10 11 -15 37 -15 73
l0 57 100 0 100 0 2 -30 c0 -16 1 -35 2 -42 1 -8 -24 -10 -81 -9 -49 1 -84 -2
-88 -8 -4 -8 22 -11 82 -11 76 0 91 3 106 20 9 11 17 27 17 35 0 9 11 20 25
25 23 9 25 14 25 74 l0 64 36 6 35 7 -38 26 c-21 14 -44 34 -51 44 -7 11 -19
19 -26 19 -29 0 -26 32 4 60 l30 28 1 169 c1 92 1 217 1 278 -1 143 3 140
-182 144 -185 3 -190 0 -190 -113 0 -70 3 -86 21 -105 19 -20 28 -22 69 -17
74 10 80 4 80 -73 -1 -84 -22 -130 -73 -154 -45 -22 -74 -17 -110 19 -43 42
-50 91 -51 314 -2 352 16 439 100 491 50 30 84 19 140 -47 26 -30 54 -54 63
-54 28 1 111 59 121 86 6 14 10 45 10 70 0 41 2 45 36 59 20 8 43 15 50 15 14
0 19 -31 7 -44 -8 -8 -10 -15 -21 -76 -20 -111 15 -198 131 -324 27 -30 34
-47 20 -45 -5 1 -10 1 -13 0 -3 -1 -34 -3 -69 -5 -100 -6 -101 -7 -102 -217 0
-97 3 -194 6 -215 13 -72 62 -160 118 -209 74 -67 125 -88 198 -82 39 3 65 0
77 -9 15 -11 13 -14 -23 -30 -42 -18 -227 -24 -293 -10 -31 7 -32 7 -32 -26
l-1 -33 -14 25 c-13 24 -14 21 -15 -42 0 -40 5 -72 13 -80 21 -23 37 -57 37
-78 0 -11 5 -20 10 -20 6 0 8 11 4 25 -4 15 -2 25 5 25 7 0 8 21 4 63 l-5 62
84 -3 c148 -7 243 29 338 127 25 25 67 62 94 81 61 43 111 114 132 188 25 84
16 220 -19 295 -32 71 -121 165 -223 238 -61 44 -72 56 -59 64 8 5 78 48 154
95 137 83 140 85 134 115 -29 158 -183 274 -365 275 l-48 0 0 59 0 60 96 3
c52 2 99 -1 103 -5 13 -13 53 -4 65 16 8 12 8 22 0 35 -15 23 -62 28 -70 8 -9
-23 -279 -24 -288 -1 -7 20 -50 19 -66 0 -10 -12 -10 -21 -2 -40 13 -29 56
-34 70 -9 8 14 32 17 143 19 121 2 124 2 34 -4 l-100 -6 -3 -72 c-2 -49 -7
-73 -15 -73 -7 0 -22 -3 -34 -6 -21 -6 -23 -3 -23 40 0 64 -19 74 -145 76 -75
1 -102 5 -108 16 -5 8 -23 14 -43 14 l-36 0 3 97 c2 68 0 98 -9 101 -9 3 -12
-24 -12 -102 l0 -106 39 0 c31 0 41 -4 46 -20 6 -18 15 -20 121 -20 128 0 127
1 128 -74 1 -29 -3 -41 -15 -44 -12 -2 -15 4 -11 28 8 54 -7 60 -139 60 -114
0 -118 1 -121 23 -2 18 -10 23 -40 25 l-38 3 0 88 c0 51 5 92 11 98 15 15 4
43 -16 43 -20 0 -31 -28 -16 -43 17 -17 15 -330 -1 -325 -7 3 -16 18 -19 34
-6 24 -7 25 -8 6 -1 -18 -6 -23 -23 -20 -23 3 -23 4 -23 171 0 151 -1 167 -17
167 -22 0 -32 -18 -20 -33 14 -17 15 -297 1 -297 -6 0 -9 31 -8 88 2 68 -1 88
-12 90 -11 2 -13 -14 -10 -83 3 -84 3 -85 -21 -85 -23 0 -24 1 -21 85 1 61 -1
85 -10 85 -8 0 -12 -26 -12 -87 0 -75 -2 -88 -17 -91 -17 -3 -18 11 -18 188 0
157 3 194 15 206 19 19 19 29 -1 48 -12 12 -20 13 -35 6 -20 -11 -26 -45 -9
-55 6 -4 10 -81 10 -200 0 -197 -1 -205 -38 -205 -4 0 -6 99 -4 220 2 147 -1
220 -8 220 -6 0 -10 -76 -10 -224 0 -195 -2 -225 -16 -230 -26 -10 -27 -8 -21
44 4 32 2 50 -4 50 -7 0 -10 25 -7 68 2 54 0 67 -12 67 -12 0 -14 -14 -11 -75
1 -41 7 -80 13 -87 13 -16 6 -85 -10 -91 -9 -3 -12 20 -12 92 0 52 -4 98 -10
101 -5 3 -10 35 -10 71 0 36 4 64 10 64 13 0 13 37 0 45 -19 12 -41 -15 -30
-35 6 -10 10 -46 10 -79 l0 -61 -45 0 -45 0 0 -150 c0 -93 -4 -150 -10 -150
-6 0 -10 96 -10 268 l0 268 -33 32 c-31 30 -37 32 -108 32 -70 0 -77 -2 -103
-29 l-27 -28 3 -202 c2 -156 0 -201 -9 -201 -10 0 -13 47 -13 203 l0 203 -33
32 c-28 28 -36 31 -46 19 -9 -11 -8 -17 2 -26 8 -6 17 -8 20 -4 4 3 15 -5 26
-18 19 -22 20 -39 21 -216 l0 -193 -26 0 -25 0 2 132 c2 93 -1 133 -9 136 -9
3 -12 -33 -12 -132 0 -118 -2 -136 -16 -136 -14 0 -16 15 -14 108 4 179 0 316
-7 308 -4 -4 -6 -49 -4 -100 2 -59 -1 -96 -8 -101 -8 -4 -8 -12 -1 -25 5 -10
10 -57 10 -104 0 -85 0 -86 -25 -86 l-25 0 0 157 c0 132 3 159 17 175 15 17
15 19 -2 38 -13 14 -16 29 -12 55 5 33 -3 52 -16 38z m435 -55 l28 -33 0 -261
c0 -224 -2 -263 -15 -268 -13 -5 -15 28 -15 256 0 255 -1 262 -22 285 -18 19
-32 23 -84 23 -41 0 -65 -5 -73 -14 -8 -10 -11 -70 -9 -205 2 -148 0 -191 -9
-191 -10 0 -13 47 -13 202 0 245 -3 238 109 238 73 0 76 -1 103 -32z m-35 -30
c23 -21 23 -23 23 -280 0 -165 -4 -258 -10 -258 -5 0 -11 21 -12 48 l-1 47 -4
-42 c-5 -48 -7 -50 -31 -27 -13 14 -16 38 -15 136 1 66 4 122 7 126 3 3 6 -52
6 -121 0 -78 4 -127 10 -127 6 0 11 73 12 195 0 107 1 201 2 208 1 6 -6 12
-14 12 -12 0 -14 -12 -11 -64 2 -45 0 -62 -8 -57 -6 4 -11 35 -11 72 0 41 -4
63 -10 59 -5 -3 -10 -32 -10 -64 0 -32 -3 -61 -7 -65 -5 -4 -6 -66 -4 -137 2
-73 -1 -129 -6 -129 -19 0 -32 24 -26 50 3 15 0 31 -6 34 -12 8 -16 387 -4
399 3 4 29 7 57 7 37 0 55 -5 73 -22z m200 -243 c2 -7 -12 -9 -37 -7 l-40 4 0
-135 c0 -80 -4 -138 -10 -142 -6 -4 -10 47 -10 145 l0 151 47 -3 c25 -2 48 -8
50 -13z m-270 -187 c-2 -35 -3 -9 -3 57 0 66 1 94 3 63 2 -32 2 -86 0 -120z
m271 75 c-2 -61 -7 -88 -16 -91 -10 -3 -13 7 -11 42 2 25 0 48 -4 52 -4 4 -7
-19 -7 -52 -1 -36 -6 -67 -15 -78 -13 -18 -15 -8 -15 97 l0 117 35 0 36 0 -3
-87z m502 62 c0 -10 -11 -15 -35 -15 -24 0 -35 5 -35 15 0 10 11 15 35 15 24
0 35 -5 35 -15z m130 -35 c0 -5 -37 -10 -82 -12 l-83 -3 -3 -43 c-3 -37 -6
-42 -18 -31 -8 7 -14 29 -14 55 l0 44 100 0 c57 0 100 -4 100 -10z m108 -17
c27 -58 20 -67 -78 -99 l-90 -30 0 58 c0 58 0 58 30 58 19 0 34 7 42 20 9 14
24 20 48 20 28 0 37 -5 48 -27z m-188 -77 c0 -36 -4 -68 -10 -71 -5 -3 -21 6
-35 22 -17 20 -24 40 -25 71 0 41 0 42 35 42 l35 0 0 -64z m396 -36 c16 -14
20 -105 4 -115 -12 -7 -31 38 -34 79 -1 16 -7 31 -14 34 -15 5 -29 -28 -15
-37 9 -6 33 -65 33 -82 0 -22 -20 -5 -44 35 -27 46 -54 131 -44 141 3 3 25 9
49 13 l44 8 3 -32 c2 -18 10 -38 18 -44z m-779 1 c5 -45 11 -56 45 -82 21 -17
37 -34 34 -37 -3 -2 -22 10 -42 27 -20 18 -39 30 -42 26 -5 -5 11 -19 52 -47
6 -4 7 -10 4 -13 -4 -4 -23 5 -43 21 -35 27 -36 28 -30 79 5 41 3 54 -10 65
-12 10 -13 15 -3 21 19 12 28 -2 35 -60z m27 47 c3 -13 6 -34 6 -47 0 -13 3
-21 7 -17 4 4 6 25 4 46 -2 31 1 40 13 40 21 0 22 -73 1 -90 -8 -7 -15 -17
-15 -23 0 -5 9 -2 20 8 14 13 20 31 20 62 0 30 4 43 14 43 22 0 8 -90 -18
-118 -22 -22 -23 -22 -43 -5 -14 12 -23 35 -26 71 -6 52 5 72 17 30z m155 12
c10 0 6 -9 -12 -28 -15 -15 -27 -38 -27 -49 0 -30 -50 -87 -63 -74 -7 7 -2 18
16 35 23 21 27 34 27 77 0 48 1 51 23 45 12 -3 28 -6 36 -6z m639 -17 c-2 -17
-9 -28 -18 -28 -9 0 -16 11 -18 28 -3 22 1 27 18 27 17 0 21 -5 18 -27z m73
17 l37 -10 -13 -44 c-20 -66 -54 -126 -71 -126 -11 0 -14 6 -10 20 3 11 9 29
12 40 3 11 12 20 20 20 9 0 14 7 12 18 -7 36 -33 17 -47 -35 -8 -29 -18 -53
-22 -53 -5 0 -9 22 -9 48 0 36 5 54 20 67 11 10 20 29 20 42 0 26 2 27 51 13z
m-1596 -11 c4 -6 5 -12 4 -13 -9 -7 -89 7 -89 15 0 13 77 11 85 -2z m37 -60
c3 -84 21 -107 57 -75 17 16 21 31 21 83 l0 63 35 0 35 0 0 -90 0 -90 -70 0
c-77 0 -90 10 -90 70 0 17 -4 39 -9 49 -6 10 -7 27 -4 39 11 43 22 21 25 -49z
m28 11 c0 -33 4 -60 10 -60 6 0 10 27 10 60 0 33 4 60 10 60 17 0 12 -116 -5
-130 -30 -25 -45 -4 -45 65 0 37 4 65 10 65 6 0 10 -27 10 -60z m594 31 c15
-16 15 -24 4 -60 -11 -36 -16 -41 -43 -41 -36 1 -104 53 -84 66 8 5 22 -4 39
-24 15 -18 31 -32 38 -32 25 0 21 22 -9 51 -17 16 -29 33 -25 36 3 4 19 -6 34
-20 37 -36 53 -35 19 1 -26 27 -27 42 -2 42 7 0 20 -8 29 -19z m266 11 c0 -5
-11 -19 -24 -31 -13 -12 -26 -34 -30 -49 -6 -29 -53 -88 -63 -79 -3 4 6 20 21
37 14 17 26 41 26 53 0 11 12 34 27 49 27 28 43 35 43 20z m430 -38 c0 -11 16
-46 35 -79 20 -32 34 -59 32 -61 -5 -6 -76 93 -94 131 -15 31 -15 37 -3 45 17
10 30 -5 30 -36z m-1482 18 c6 -10 8 -267 5 -610 -4 -511 -2 -596 11 -622 14
-29 14 -30 -12 -31 -28 -2 -64 -2 -94 0 -17 1 -18 21 -18 274 0 301 1 296 -62
311 l-28 6 0 285 0 285 54 54 c30 30 63 56 73 58 45 9 63 7 71 -10z m1807 4
c18 -13 18 -15 2 -39 -9 -15 -23 -24 -30 -21 -8 3 -22 -14 -35 -42 -29 -58
-21 -71 8 -14 29 56 37 45 9 -13 -19 -39 -25 -44 -40 -34 -16 10 -16 14 10 66
16 31 31 68 35 84 7 31 14 33 41 13z m-1687 -24 c16 -20 16 -134 0 -150 -14
-14 -78 -16 -78 -2 0 6 18 10 40 10 22 0 40 5 40 10 0 6 -18 10 -40 10 l-40 0
0 56 c0 54 0 55 28 52 23 -3 27 -7 27 -35 0 -42 -18 -47 -26 -8 -6 29 -7 29
-8 -7 -1 -34 1 -38 25 -38 24 0 25 2 22 48 -3 45 -4 47 -35 50 -18 2 -33 9
-33 16 0 18 62 8 78 -12z m935 6 c-11 -13 -23 -34 -26 -48 -10 -38 -46 -92
-57 -85 -6 4 0 19 15 37 14 16 25 37 25 46 0 9 12 29 27 44 32 33 46 38 16 6z
m-318 -46 c-7 -7 -55 39 -55 52 0 5 13 -3 30 -19 16 -16 28 -31 25 -33z m379
43 c18 -14 17 -16 -18 -55 -20 -22 -36 -46 -36 -53 0 -12 -39 -67 -40 -55 0
15 51 106 70 123 11 10 20 23 20 28 0 20 -52 -39 -72 -81 -20 -42 -35 -58 -44
-49 -3 2 6 22 21 42 14 21 25 43 25 50 0 14 38 65 48 65 4 0 16 -7 26 -15z
m364 -100 c3 3 -5 16 -18 30 -13 14 -21 27 -18 30 5 6 88 -108 88 -121 0 -4
-11 3 -25 16 -13 12 -22 27 -19 31 3 5 -2 6 -11 3 -14 -6 -12 -12 14 -38 23
-24 27 -33 17 -42 -9 -8 -18 -9 -30 -2 -10 6 -53 12 -97 15 -43 3 -79 10 -79
14 0 5 14 6 30 3 19 -4 30 -2 30 5 0 6 -11 11 -25 11 -14 0 -25 5 -25 10 0 14
9 13 73 -9 32 -10 57 -14 57 -10 0 5 -5 9 -12 9 -6 0 -8 3 -5 7 4 3 21 -6 37
-22 16 -16 33 -26 36 -22 8 8 -33 43 -88 74 -26 15 -45 20 -59 14 -18 -6 -15
-9 21 -20 23 -7 40 -15 37 -17 -5 -5 -87 16 -87 22 0 3 22 56 26 62 1 2 25
-13 53 -34 29 -20 54 -34 57 -31 3 2 -18 21 -46 42 -42 30 -48 40 -39 52 10
12 20 6 57 -37 24 -28 47 -48 50 -45z m406 52 l30 -38 -22 -19 c-12 -11 -17
-15 -12 -8 6 7 10 19 10 27 0 16 -99 -87 -100 -103 0 -6 17 6 38 25 l37 34
-33 -36 c-29 -31 -41 -36 -70 -30 -2 1 8 15 23 32 14 17 23 34 20 37 -3 4 -17
-7 -30 -23 -13 -17 -24 -25 -25 -18 0 21 82 164 93 160 6 -2 24 -20 41 -40z
m-763 -22 c-17 -20 -31 -40 -31 -46 0 -16 -40 -69 -51 -69 -5 0 2 17 16 37 14
21 25 42 25 47 0 13 62 77 68 71 3 -2 -9 -20 -27 -40z m-443 10 c20 -17 42
-25 68 -25 28 0 49 -9 74 -30 23 -19 29 -30 19 -30 -9 0 -20 -10 -26 -22 -10
-22 -13 -23 -139 -19 l-129 5 110 9 c61 5 120 9 132 9 13 0 20 4 17 9 -3 5 0
9 7 9 7 0 5 8 -6 20 -13 14 -31 20 -62 20 -33 0 -53 7 -79 28 -18 15 -34 30
-34 35 0 14 19 7 48 -18z m468 -34 c-14 -15 -26 -38 -26 -51 0 -13 -12 -37
-27 -52 -43 -45 -17 -32 37 18 47 44 69 52 33 12 -16 -18 -16 -18 2 -12 13 5
16 4 11 -5 -4 -7 -13 -10 -19 -8 -7 2 -27 -9 -46 -25 -33 -29 -33 -29 -48 -8
-13 19 -12 23 11 50 13 17 28 40 31 52 9 30 59 82 63 68 3 -7 -8 -24 -22 -39z
m-731 13 c32 -16 63 -24 85 -22 34 3 35 2 33 -32 -1 -19 -11 -69 -23 -110 -44
-154 -67 -562 -35 -624 8 -15 15 -46 15 -68 0 -57 54 -162 115 -224 43 -45 62
-56 138 -80 65 -21 83 -30 70 -36 -10 -5 14 -7 55 -5 l72 3 2 -41 1 -40 4 43
c2 23 7 42 11 42 4 0 17 3 30 6 18 5 22 2 22 -17 0 -44 27 -59 102 -59 44 0
67 -4 63 -10 -4 -6 -57 -10 -126 -10 -127 0 -125 -1 -120 53 2 15 -9 17 -118
17 l-121 0 0 -35 c0 -28 -4 -35 -19 -35 -10 0 -21 9 -24 20 -4 18 -2 20 16 14
21 -7 21 -6 -3 19 -30 31 -35 28 -32 -19 3 -35 2 -35 -35 -32 l-38 3 -3 58
c-2 35 1 57 8 57 5 0 11 -24 12 -52 l2 -53 3 48 c3 32 8 47 16 44 7 -2 11 -14
9 -25 -2 -12 2 -22 8 -22 7 0 9 7 6 16 -6 15 0 16 46 11 58 -7 48 -1 -46 29
-32 10 -75 30 -96 45 -31 23 -45 26 -86 23 -38 -3 -45 -2 -29 6 16 8 13 9 -16
5 -27 -4 -38 -1 -42 9 -5 12 -11 852 -7 1021 1 54 7 85 18 85 4 0 30 -12 57
-26z m318 -34 c25 0 49 -6 55 -13 9 -11 0 -12 -49 -9 -68 5 -142 43 -132 68 4
11 15 6 43 -16 29 -23 48 -30 83 -30z m447 10 c0 -11 -5 -20 -11 -20 -7 0 -18
-8 -25 -17 -10 -14 -13 -15 -14 -4 0 13 37 61 47 61 2 0 3 -9 3 -20z m-545
-20 c4 -6 -7 -10 -24 -10 -29 0 -41 17 -25 33 8 7 40 -8 49 -23z m1304 -26 c7
-26 11 -48 9 -49 -2 -2 -15 -6 -29 -10 -24 -6 -27 -3 -32 31 -5 28 -2 42 11
55 25 26 28 24 41 -27z m-1696 6 c38 0 67 -4 67 -10 0 -6 -31 -10 -73 -10 -73
0 -97 9 -97 39 0 12 3 11 18 -2 13 -12 37 -17 85 -17z m487 -11 c-66 -11 -172
-11 -165 1 4 6 50 9 108 9 84 -1 94 -3 57 -10z m953 -4 c30 -13 107 -100 107
-123 0 -4 -32 -27 -72 -51 l-71 -44 -58 60 c-80 82 -79 130 1 162 35 14 53 13
93 -4z m-1476 -15 c29 0 53 -4 53 -10 0 -6 -43 -10 -110 -10 -67 0 -110 4
-110 10 0 6 18 10 39 10 22 0 43 5 47 11 4 8 9 8 17 0 6 -6 35 -11 64 -11z
m1672 -37 c1 -7 -5 -13 -12 -13 -9 0 -12 11 -8 38 4 34 5 35 12 12 4 -14 7
-31 8 -37z m-1089 5 c0 -10 -29 -12 -120 -10 -66 2 -120 7 -120 13 0 5 52 9
120 9 89 0 120 -3 120 -12z m618 5 c-21 -2 -55 -2 -75 0 -21 2 -4 4 37 4 41 0
58 -2 38 -4z m-1098 -15 c0 -4 -61 -8 -135 -10 -85 -2 -135 1 -135 7 0 6 52
10 135 10 74 0 135 -3 135 -7z m1188 -6 c2 -8 -10 -12 -36 -12 -22 0 -63 -5
-92 -10 -41 -8 -56 -7 -61 2 -13 21 3 27 86 30 98 5 98 5 103 -10z m-720 -21
c3 -10 0 -12 -14 -6 -37 15 -59 18 -49 7 6 -5 19 -12 29 -14 22 -4 29 -18 18
-36 -7 -9 -18 -9 -56 4 -31 11 -69 15 -112 12 -41 -2 -64 0 -64 7 0 13 141 9
184 -6 48 -15 54 -9 11 11 -27 12 -64 19 -112 19 -43 1 -73 5 -73 11 0 7 41
10 117 8 89 -2 117 -6 121 -17z m-468 -486 l0 -485 -40 0 -40 0 0 199 c0 123
-4 202 -10 206 -6 4 -10 99 -10 251 l0 246 28 -3 c39 -5 55 7 42 32 -10 17
-22 19 -125 19 -70 0 -115 4 -115 10 0 6 52 10 135 10 l135 0 0 -485z m1111
440 c-98 -40 -91 -39 -91 -22 0 7 21 19 48 26 26 8 40 16 30 18 -9 2 -32 -3
-52 -11 -21 -9 -38 -11 -41 -5 -11 16 36 26 125 27 l65 1 -84 -34z m88 8 c0
-5 -30 -30 -66 -56 -52 -38 -68 -45 -79 -36 -19 15 -18 35 2 43 12 5 14 1 9
-15 -5 -15 -4 -19 4 -15 6 4 11 15 11 25 0 13 16 25 53 39 61 23 67 25 66 15z
m-1264 -13 c-3 -6 -50 -10 -106 -10 -59 0 -99 4 -99 10 0 6 42 10 106 10 67 0
103 -4 99 -10z m455 -273 c0 -208 -2 -276 -12 -289 -14 -17 -115 -31 -124 -17
-3 5 17 9 43 9 27 0 54 5 61 12 8 8 12 60 12 167 0 180 -5 191 -76 191 -24 0
-46 -5 -49 -10 -4 -6 -11 -8 -16 -4 -5 3 -16 0 -24 -6 -13 -10 -15 -8 -15 14
0 26 0 26 78 26 47 0 83 5 90 12 8 8 11 40 10 88 l-2 75 -3 -70 c-2 -38 -9
-75 -15 -82 -7 -9 -36 -13 -84 -13 -66 0 -74 2 -74 19 0 41 9 50 43 40 18 -5
47 -9 65 -9 20 0 31 -4 27 -10 -9 -14 -61 -13 -85 2 -15 10 -22 10 -32 0 -21
-21 4 -31 67 -24 l60 7 3 63 3 62 -41 0 c-40 0 -40 0 -40 -38 0 -37 -1 -38
-30 -34 -32 5 -41 28 -14 39 13 5 13 7 2 14 -9 6 -7 9 10 9 12 0 22 4 22 9 0
5 -10 12 -22 14 -13 2 18 5 69 6 l91 1 2 -273z m51 -42 c-1 -282 -1 -289 -23
-312 -18 -19 -32 -23 -79 -23 -55 0 -57 -1 -61 -30 -3 -16 -1 -30 3 -30 4 0 9
10 11 23 3 19 10 22 58 25 38 2 62 9 76 23 12 11 24 17 27 12 2 -4 -16 -24
-40 -43 -78 -62 -134 -113 -128 -118 2 -3 25 13 50 34 100 87 126 107 132 101
3 -3 -10 -19 -28 -34 -19 -15 -44 -39 -57 -53 -12 -14 -31 -34 -42 -46 -24
-25 -26 -43 -6 -50 9 -3 41 22 84 68 39 40 74 70 78 65 4 -4 -13 -29 -39 -55
-43 -43 -47 -52 -47 -95 0 -26 -2 -47 -5 -47 -20 0 -69 36 -104 76 l-42 47 48
43 c27 24 56 43 66 44 9 0 17 4 17 9 0 18 -46 -3 -89 -41 -51 -44 -50 -45 -81
46 l-18 53 92 -5 c134 -6 126 -27 129 315 1 155 -1 279 -5 276 -5 -2 -8 -126
-8 -275 0 -320 4 -308 -97 -308 -35 0 -63 4 -63 10 0 6 26 10 57 10 96 0 93
-10 93 296 0 144 3 269 6 278 4 11 11 13 21 8 13 -8 15 -52 14 -297z m783 296
c4 -5 -8 -21 -25 -35 -24 -20 -34 -24 -45 -15 -11 9 -8 15 14 35 29 25 47 30
56 15z m-1474 -65 c0 -36 -4 -68 -10 -71 -6 -4 -10 20 -10 64 0 41 4 71 10 71
6 0 10 -28 10 -64z m5 -93 c-9 -14 -19 -22 -22 -20 -3 3 2 16 11 29 10 14 17
47 18 88 l2 65 3 -69 c3 -51 0 -74 -12 -93z m45 63 c0 -53 -4 -98 -10 -101 -6
-4 -10 -113 -10 -296 0 -193 -3 -289 -10 -289 -14 0 -12 607 1 615 5 4 9 42 9
86 0 46 4 79 10 79 6 0 10 -38 10 -94z m30 -44 c0 -76 -4 -142 -9 -147 -6 -6
-13 -137 -17 -292 -4 -156 -11 -283 -16 -283 -4 0 -8 -9 -8 -20 0 -11 -4 -20
-10 -20 -15 0 -12 31 4 49 11 13 15 79 20 311 7 366 16 540 27 540 5 0 9 -62
9 -138z m25 -114 c-4 -139 -11 -261 -16 -270 -5 -9 -9 -98 -9 -197 0 -157 -2
-181 -16 -181 -8 0 -12 5 -9 10 9 15 21 282 32 743 3 96 8 147 15 147 7 0 8
-74 3 -252z m35 -242 c14 -14 13 -406 0 -406 -6 0 -11 72 -12 193 l-3 192 -2
-192 c-3 -162 -6 -193 -18 -193 -22 0 -21 333 0 370 11 19 15 81 17 280 l3
255 2 -245 c2 -142 7 -248 13 -254z m440 444 c0 -25 -4 -30 -25 -30 -21 0 -25
5 -25 30 0 25 4 30 25 30 21 0 25 -5 25 -30z m920 21 c0 -14 -60 -55 -68 -47
-3 4 7 18 23 31 32 26 45 31 45 16z m45 -31 c18 -20 18 -21 -11 -51 l-30 -30
-25 20 -24 19 29 31 c35 37 37 37 61 11z m-148 -7 c2 -5 -8 -18 -23 -28 -20
-13 -29 -14 -38 -5 -8 9 -5 16 13 31 25 20 42 21 48 2z m10 -50 c-15 -16 -30
-22 -38 -18 -9 6 -5 14 16 31 37 30 55 19 22 -13z m181 20 c-7 -18 -128 -125
-128 -115 0 7 -6 12 -13 12 -8 0 -23 10 -35 23 l-22 23 25 24 25 23 25 -23
c23 -22 24 -25 8 -42 -9 -10 -14 -21 -11 -24 4 -3 30 20 59 50 46 49 78 71 67
49z m42 -27 c0 -3 -4 -16 -10 -30 -5 -15 -6 -26 0 -26 5 0 12 9 15 20 3 11 11
20 16 20 12 0 11 -6 -2 -55 -11 -40 -86 -141 -97 -130 -3 3 10 21 28 40 18 19
31 37 28 40 -3 3 -18 -9 -32 -26 -25 -29 -29 -31 -43 -16 -15 15 -13 19 28 56
33 29 41 42 33 51 -8 8 -21 0 -51 -34 -36 -40 -42 -44 -53 -30 -11 13 -8 20
20 47 21 20 26 22 14 7 -46 -55 -33 -52 27 8 57 55 79 71 79 58z m51 -92 c-11
-38 -97 -141 -109 -130 -3 3 15 28 40 54 33 36 48 60 53 91 5 28 11 39 17 33
6 -6 6 -23 -1 -48z m-1681 -281 c-1 -274 0 -308 14 -307 20 2 20 -7 1 -32 -8
-10 -15 -29 -15 -41 0 -13 -4 -23 -10 -23 -6 0 -10 123 -10 348 0 310 2 362
17 362 2 0 3 -138 3 -307z m1734 292 c18 -14 17 -17 -30 -67 -28 -29 -56 -68
-63 -85 -15 -37 -35 -45 -27 -10 3 12 3 16 0 10 -3 -7 -10 -13 -16 -13 -6 0
12 24 40 54 34 35 53 65 57 90 8 40 11 42 39 21z m-1136 -7 c13 -13 18 -271 6
-302 -5 -12 -20 -16 -59 -16 -29 0 -55 -4 -57 -9 -1 -4 -12 -11 -24 -15 -20
-6 -21 -2 -27 85 -4 51 -7 126 -7 167 0 73 1 75 19 58 18 -16 51 -13 51 6 0 5
17 8 37 6 46 -4 58 -28 14 -28 -55 0 -68 -73 -15 -86 39 -10 55 12 52 70 l-3
51 -40 3 c-61 5 -68 22 -9 22 28 0 55 -5 62 -12z m1139 -77 c-25 -25 -55 -66
-68 -91 -12 -25 -24 -40 -26 -33 -10 28 109 189 130 176 5 -3 -11 -26 -36 -52z
m-737 25 c0 -16 -13 -35 -40 -56 -30 -24 -40 -39 -40 -60 0 -16 -4 -32 -10
-35 -6 -4 -10 5 -10 19 0 14 -5 26 -11 26 -6 0 -8 -8 -4 -19 3 -11 1 -22 -5
-26 -6 -3 -10 4 -11 17 l0 23 -9 -22 c-6 -13 -18 -23 -30 -23 -19 0 -20 6 -19
90 l2 90 93 0 c93 0 94 0 94 -24z m28 -26 c-3 -29 0 -50 5 -50 13 0 -64 -69
-77 -70 -5 0 -1 10 10 21 14 16 15 21 4 17 -8 -2 -21 -15 -27 -29 -13 -24 -13
-24 -13 8 0 25 8 38 40 63 30 24 40 39 40 61 0 16 5 29 11 29 7 0 9 -18 7 -50z
m32 6 c0 -25 -4 -48 -10 -51 -6 -4 -10 13 -10 44 0 28 5 51 10 51 6 0 10 -20
10 -44z m-9 -94 c-20 -14 -31 -33 -31 -48 0 -28 3 -29 35 -8 14 9 25 12 25 6
0 -5 -15 -19 -32 -31 l-33 -20 -6 37 -6 37 -2 -42 c-1 -34 3 -43 16 -43 24 0
83 48 83 69 0 29 -11 32 -38 11 -42 -33 -40 -11 2 24 39 32 39 33 33 89 -4 45
-3 57 9 57 11 0 14 -25 14 -135 l0 -135 -70 0 -70 0 0 53 c1 50 3 53 45 85 43
31 45 35 47 85 l2 52 3 -59 c4 -56 2 -61 -26 -84z m197 96 c-2 -32 -8 -44 -21
-46 -17 -3 -17 -1 -6 19 9 17 9 24 0 27 -20 7 -13 42 10 42 18 0 20 -5 17 -42z
m32 -12 c0 -51 -2 -55 -29 -64 -30 -10 -45 -6 -35 9 3 5 14 9 25 9 16 0 19 7
19 50 0 28 5 50 10 50 6 0 10 -24 10 -54z m30 -12 c0 -65 0 -65 -35 -80 -38
-16 -65 -18 -65 -6 0 5 17 13 38 18 l37 9 3 63 c4 82 22 80 22 -4z m30 6 c0
-57 1 -60 25 -60 49 0 24 -25 -48 -48 -78 -24 -112 -28 -102 -12 3 6 15 10 26
10 11 0 33 7 49 15 29 15 30 18 30 85 0 40 4 70 10 70 6 0 10 -27 10 -60z m50
26 c0 -29 -3 -33 -20 -29 -14 4 -20 14 -20 34 0 22 5 29 20 29 16 0 20 -7 20
-34z m93 -3 c18 -20 63 -70 101 -112 38 -42 77 -95 88 -118 37 -84 6 -149 -82
-173 -35 -9 -45 -8 -88 14 -71 36 -76 52 -78 254 -2 193 2 202 59 135z m357
-58 c-7 -8 -35 -15 -63 -17 -51 -3 -53 -4 -78 -52 -15 -26 -29 -44 -33 -38 -9
15 31 80 83 135 l46 48 28 -31 c22 -25 26 -35 17 -45z m-1267 43 c7 -21 -4
-38 -23 -38 -23 0 -34 16 -26 35 7 18 43 20 49 3z m1312 -94 c19 -46 19 -44
-10 -44 -14 0 -25 -5 -25 -11 0 -7 11 -9 30 -5 17 3 30 1 30 -4 0 -6 -11 -10
-24 -10 -13 0 -26 -6 -28 -12 -3 -9 -33 -13 -89 -15 -57 -1 -76 1 -59 6 14 5
41 9 61 10 45 1 59 16 59 61 0 34 14 60 32 60 4 0 15 -16 23 -36z m-65 -8 c0
-39 -11 -56 -35 -56 -24 0 -35 17 -35 56 0 21 5 24 35 24 30 0 35 -3 35 -24z
m-99 -68 c-14 -4 -27 -6 -29 -4 -2 2 7 24 20 48 l22 43 6 -40 c4 -36 3 -41
-19 -47z m-331 37 c0 -10 -10 -15 -32 -15 -18 0 -57 -7 -85 -14 -29 -8 -55
-10 -58 -5 -3 4 7 11 22 15 15 3 46 12 68 19 55 18 85 18 85 0z m0 -35 c0 -5
-15 -10 -34 -10 -18 0 -53 -7 -76 -15 -47 -17 -70 -19 -70 -7 0 9 113 39 153
41 15 0 27 -3 27 -9z m0 -30 c0 -5 -13 -10 -29 -10 -16 0 -48 -7 -71 -15 -45
-16 -88 -20 -76 -7 9 9 123 40 154 41 12 1 22 -3 22 -9z m530 0 c0 -5 -8 -11
-17 -11 -17 -1 -17 -2 0 -6 26 -7 21 -31 -5 -26 -16 3 -23 11 -23 29 0 18 5
24 23 24 12 0 22 -4 22 -10z m-65 -15 c-25 -8 -155 -11 -155 -4 0 5 37 9 83 8
45 0 78 -2 72 -4z m-735 -25 c0 -6 -30 -10 -70 -10 -40 0 -70 4 -70 10 0 6 30
10 70 10 40 0 70 -4 70 -10z m270 -5 c0 -8 -5 -24 -12 -35 -9 -14 -10 -29 -2
-59 9 -34 8 -47 -7 -78 -11 -21 -16 -27 -12 -13 4 14 6 41 5 60 -2 19 -3 56
-4 82 0 26 -5 45 -10 42 -12 -7 -10 -72 3 -108 9 -24 8 -39 -4 -66 l-14 -35
-1 50 c-2 85 -13 165 -23 159 -13 -8 -11 -60 5 -98 13 -30 12 -35 -15 -74 -16
-23 -24 -42 -19 -42 6 0 19 15 30 33 11 17 20 28 20 22 0 -14 -38 -75 -47 -75
-5 0 -14 9 -20 20 -11 16 -10 21 7 30 31 16 43 48 32 78 -6 15 -13 46 -16 69
-7 46 -2 50 67 52 27 1 37 -3 37 -14z m470 -1 c0 -9 11 -14 30 -14 25 0 30 -4
30 -25 0 -19 -6 -25 -22 -26 l-23 -2 22 -4 c29 -6 19 -33 -13 -33 -21 0 -24 3
-18 26 5 18 0 32 -17 50 -19 20 -33 24 -83 26 l-61 1 55 6 c92 10 100 10 100
-5z m-587 -51 c2 -27 8 -57 11 -69 8 -23 -27 -75 -41 -61 -4 5 0 14 10 21 23
18 22 29 -3 16 -26 -14 -28 7 -2 26 16 12 15 13 -5 14 -26 0 -31 18 -8 26 8 4
15 17 15 31 0 13 -4 21 -10 18 -5 -3 -15 -3 -21 1 -14 8 8 24 33 24 12 0 17
-12 21 -47z m-155 -92 c-2 -89 -7 -126 -15 -129 -10 -3 -13 13 -13 55 0 37 -6
67 -16 81 -9 13 -14 33 -11 44 4 15 -3 29 -22 47 l-28 26 54 0 54 0 -3 -124z
m667 119 c-3 -5 -22 -10 -41 -10 -19 0 -34 5 -34 10 0 6 18 10 41 10 24 0 38
-4 34 -10z m-765 -22 c23 -16 30 -30 30 -54 0 -18 5 -36 10 -39 6 -3 10 -31
10 -61 0 -31 5 -65 11 -76 9 -16 8 -19 -3 -16 -9 3 -14 26 -16 69 -2 35 -7 68
-13 74 -5 5 -9 24 -9 41 0 26 -6 37 -30 51 -16 9 -30 21 -30 25 0 13 9 10 40
-14z m378 -112 c-10 -27 -23 -57 -28 -67 -12 -22 -13 -32 -1 -25 4 3 19 33 31
66 12 33 26 60 31 60 10 0 -47 -129 -68 -152 -16 -18 -10 -38 13 -38 13 0 18
12 15 33 -1 6 47 128 54 135 1 1 15 -4 31 -12 16 -8 37 -17 47 -20 13 -4 17
-17 17 -61 0 -30 -6 -64 -12 -75 -10 -16 -10 -24 1 -41 13 -22 12 -22 -35 -15
-91 12 -180 69 -144 91 6 3 10 12 10 18 -1 7 -9 2 -20 -11 -10 -12 -21 -18
-24 -14 -3 5 3 17 14 27 11 10 20 23 20 28 0 6 -11 0 -25 -13 -32 -30 -44 -19
-17 15 24 30 31 32 43 14 5 -9 15 2 29 36 19 44 20 55 9 86 -6 20 -8 43 -3 50
5 9 11 0 19 -27 10 -33 9 -47 -7 -88z m446 102 c15 -24 -13 -53 -43 -43 -21 6
-29 43 -14 59 12 12 45 2 57 -16z m-834 -20 c13 -13 19 -23 12 -26 -13 -4 -5
-61 11 -77 7 -7 8 -4 4 8 -4 10 -3 16 2 13 5 -4 8 -32 8 -65 -1 -36 4 -65 12
-75 11 -14 11 -16 -3 -16 -9 0 -16 -5 -16 -11 0 -5 -5 -7 -11 -3 -8 5 -8 9 1
14 10 6 9 13 -4 31 -11 16 -16 44 -16 87 0 55 -3 66 -26 87 -29 27 -26 31 9
14 22 -10 22 -10 0 10 -13 10 -23 22 -23 25 0 12 17 5 40 -16z m757 -18 c26
-29 29 -30 85 -24 l59 7 -17 -44 c-9 -24 -20 -47 -24 -52 -3 -4 -32 22 -64 58
-31 36 -62 65 -68 65 -9 0 19 -35 97 -122 20 -21 22 -28 11 -37 -16 -14 -27
-2 -49 50 -8 20 -31 55 -51 77 -20 22 -36 42 -36 46 0 17 33 3 57 -24z m22
-114 c33 -67 36 -76 22 -76 -5 0 -24 31 -42 70 -17 38 -40 76 -49 85 -11 10 1
-23 27 -75 28 -58 41 -96 35 -102 -6 -6 -21 20 -42 71 -17 44 -38 85 -46 92
-8 7 -4 -12 11 -45 35 -80 31 -94 -5 -18 -29 61 -29 64 -12 87 l17 23 26 -24
c14 -14 40 -53 58 -88z m-799 75 c5 -11 10 -49 10 -85 0 -36 4 -67 9 -70 10
-6 2 -56 -9 -56 -10 0 -20 62 -20 126 0 28 -6 59 -15 70 -18 24 -19 34 0 34 8
0 19 -9 25 -19z m-262 1 c-1 -4 -30 -32 -62 -62 -39 -36 -55 -47 -46 -30 21
39 124 127 108 92z m230 -88 c2 -38 7 -73 13 -78 12 -13 12 -53 -1 -61 -5 -3
-11 4 -11 17 l-2 23 -4 -22 c-2 -13 -9 -23 -15 -23 -6 0 -8 12 -4 33 13 62 16
156 6 162 -14 9 -12 27 3 23 7 -3 13 -30 15 -74z m-32 -27 c-3 -34 -5 -77 -5
-94 0 -32 -1 -33 -45 -33 -39 0 -44 2 -39 20 3 10 11 25 19 31 10 8 14 34 14
80 0 39 4 69 10 69 6 0 10 -20 10 -45 0 -33 4 -45 15 -45 8 0 15 9 15 20 0 11
-4 20 -10 20 -11 0 -14 53 -3 64 15 15 24 -28 19 -87z m759 41 c14 -29 25 -65
25 -80 0 -16 5 -28 10 -28 6 0 10 -6 10 -13 0 -15 -46 -33 -106 -43 -41 -6
-41 -6 -36 24 2 16 -1 33 -7 36 -14 9 -15 123 -1 131 6 4 10 -10 10 -34 0 -24
5 -41 11 -41 8 0 10 14 6 40 -3 22 -2 40 3 40 11 0 18 -70 8 -76 -16 -10 -8
-34 12 -34 11 0 20 2 20 4 0 2 -4 27 -10 56 -17 87 8 97 45 18z m-904 -25 c-1
-35 2 -64 8 -68 7 -4 12 17 13 62 l1 68 7 -60 6 -60 5 60 5 60 2 -62 c2 -55
-1 -64 -23 -81 -27 -21 -33 -47 -12 -56 6 -3 -8 -4 -33 -3 -43 2 -45 4 -51 37
-7 36 -13 32 -9 -7 1 -13 -3 -23 -9 -23 -7 0 -11 23 -11 57 0 54 3 60 42 100
23 24 47 42 52 40 5 -2 9 -31 7 -64z m79 8 c0 -57 -14 -101 -32 -101 -9 0 -9
3 0 12 7 7 12 39 12 75 0 35 4 63 10 63 6 0 10 -22 10 -49z m697 -53 c-2 -18
-4 -4 -4 32 0 36 2 50 4 33 2 -18 2 -48 0 -65z m9 -74 c-5 -13 -10 -14 -18 -6
-6 6 -8 18 -4 28 5 13 10 14 18 6 6 -6 8 -18 4 -28z m-1116 -16 c0 -5 -6 -8
-12 -9 -10 0 -10 -2 0 -6 21 -8 15 -84 -10 -110 -19 -20 -31 -23 -93 -23 -61
0 -74 3 -92 23 -57 62 -26 107 72 107 79 0 68 -19 -12 -22 -62 -3 -68 -5 -71
-26 -6 -41 14 -52 96 -52 88 0 113 14 111 64 -2 27 -2 28 -6 6 -9 -47 -30 -60
-103 -60 -70 0 -91 10 -83 41 5 16 15 19 69 19 l64 0 0 35 c0 19 5 35 11 35 6
0 9 -19 7 -47 l-3 -48 -75 -6 -75 -6 80 1 80 1 3 57 c3 54 4 57 22 45 11 -6
20 -15 20 -19z m646 5 c14 -20 18 -41 16 -75 l-3 -48 -56 0 c-106 0 -126 55
-40 113 28 20 55 36 58 36 3 1 14 -11 25 -26z m-726 2 c0 -11 -12 -15 -46 -15
-40 0 -45 2 -34 15 7 8 28 15 46 15 24 0 34 -5 34 -15z m772 -40 c16 -7 9
-128 -9 -146 -16 -16 -261 -18 -267 -3 -3 7 -2 15 1 18 4 3 64 6 134 6 l127 0
-2 65 c-1 36 -1 65 0 65 1 0 8 -2 16 -5z m503 -35 c-9 -15 -74 -46 -121 -59
-23 -6 -87 -12 -143 -14 -97 -2 -101 -2 -101 19 0 21 3 21 118 17 104 -3 124
-1 182 20 36 13 66 25 68 26 2 0 0 -4 -3 -9z m-795 -51 c0 -31 0 -31 -42 -25
-24 3 -60 8 -80 12 -23 4 -38 2 -38 -4 0 -10 69 -22 126 -22 28 0 34 -4 34
-21 0 -17 -4 -20 -22 -15 -13 3 -51 6 -85 6 l-63 0 0 50 0 50 85 0 85 0 0 -31z
m390 -76 c0 -25 -2 -44 -4 -42 -8 10 -13 89 -5 89 5 0 9 -21 9 -47z m30 -4 c0
-21 -4 -39 -10 -39 -5 0 -10 21 -10 46 0 27 4 43 10 39 6 -3 10 -24 10 -46z
m-120 1 c0 -6 -11 -15 -24 -20 -14 -5 -26 -19 -29 -32 -3 -17 -5 -15 -6 10 -1
25 3 32 18 32 11 0 23 5 26 10 8 13 15 13 15 0z"/>
<path d="M824 2019 c-10 -17 13 -36 27 -22 12 12 4 33 -11 33 -5 0 -12 -5 -16
-11z"/>
<path d="M792 1643 l2 -118 3 100 c3 74 7 102 18 108 21 12 18 27 -5 27 -19 0
-20 -6 -18 -117z"/>
<path d="M1087 1443 c-28 -27 20 -63 85 -63 l38 0 0 -44 c0 -25 -3 -47 -8 -50
-4 -2 -6 13 -4 35 4 38 3 39 -26 39 -29 0 -31 -3 -34 -42 -4 -41 -4 -42 -15
-18 l-12 25 0 -28 c-1 -28 0 -28 52 -25 l52 3 3 58 3 57 -39 0 c-22 0 -44 6
-50 13 -8 9 0 11 35 8 26 -2 50 2 56 9 9 9 3 10 -25 5 -25 -5 -47 -2 -69 9
-37 19 -34 18 -42 9z m99 -107 c7 -17 -14 -59 -25 -52 -10 7 -1 66 10 66 5 0
12 -6 15 -14z"/>
<path d="M1601 1440 c-19 -16 -33 -32 -30 -34 2 -3 22 11 44 29 22 19 36 34
30 34 -5 0 -25 -13 -44 -29z"/>
<path d="M2097 996 c-7 -16 1 -26 20 -26 7 0 13 9 13 20 0 23 -25 27 -33 6z"/>
<path d="M1340 980 c0 -5 9 -14 21 -20 19 -11 19 -13 5 -29 -9 -10 -13 -21 -9
-24 12 -13 23 -7 35 18 9 21 8 28 -7 45 -19 21 -45 27 -45 10z"/>
<path d="M725 2490 c-8 -14 3 -30 21 -30 8 0 14 9 14 20 0 21 -24 28 -35 10z"/>
<path d="M1982 2480 c4 -14 241 -16 246 -2 2 6 -46 11 -123 11 -89 1 -126 -2
-123 -9z"/>
<path d="M1440 2430 c0 -15 5 -20 18 -18 9 2 17 10 17 18 0 8 -8 16 -17 18
-13 2 -18 -3 -18 -18z"/>
<path d="M1122 2393 c-13 -26 -4 -43 24 -43 29 0 41 24 24 45 -17 20 -37 19
-48 -2z"/>
<path d="M1830 2375 c-15 -18 -6 -45 13 -45 8 0 20 6 26 14 9 11 8 18 -4 30
-20 20 -20 20 -35 1z"/>
<path d="M1580 2286 c0 -31 4 -55 8 -52 9 5 7 94 -2 103 -3 4 -6 -19 -6 -51z"/>
<path d="M342 1117 c-1 -155 2 -266 8 -277 19 -36 99 -72 205 -94 l30 -6 -25
14 c-14 7 -46 16 -71 20 -46 7 -110 45 -126 76 -4 8 -10 130 -13 270 l-6 255
-2 -258z"/>
<path d="M610 764 c-11 -12 -10 -18 3 -32 16 -15 18 -15 33 0 19 18 12 48 -9
48 -8 0 -20 -7 -27 -16z"/>
<path d="M1812 713 c-2 -62 -5 -73 -22 -78 -16 -5 -20 -15 -20 -46 l0 -41 -37
4 c-33 3 -38 0 -41 -19 -3 -18 2 -23 17 -23 12 0 21 4 21 9 0 5 10 11 23 13
17 2 23 10 25 38 2 20 12 42 23 50 17 14 20 25 16 90 l-3 75 -2 -72z"/>
<path d="M2354 716 c-10 -26 4 -48 28 -44 17 2 23 10 23 28 0 18 -6 26 -23 28
-13 2 -25 -3 -28 -12z"/>
<path d="M686 674 c-9 -22 17 -49 39 -40 10 3 15 15 13 28 -4 29 -42 37 -52
12z"/>
</g>
</svg>
